<svg xmlns="http://www.w3.org/2000/svg" viewBox="0 0 980.85 145.63"><defs><style>.cls-1{fill:#ec4d4a;}.cls-2{fill:#fff;}</style></defs><title>Asset 3</title><g id="Layer_2" data-name="Layer 2"><g id="Layer_1-2" data-name="Layer 1"><path class="cls-1" d="M65.87,143.56,36.56,90.64h-2.9v52.92H0V2.06H48q19.54,0,31.49,7.51,7.59,4.89,12.66,15a45,45,0,0,1,5.07,20.27q0,21.39-10.86,30.4-6.87,6-19,7.89l38.91,60.42ZM41.08,66.25q11.94,0,17.19-4.7a17.85,17.85,0,0,0,4.89-12.94q0-10.14-6-14.83-5.61-3.95-16.11-3.94H33.66V66.25Z"/><path class="cls-1" d="M118.72,143.56V2.06h33.66v141.5Z"/><path class="cls-1" d="M278.69,124.61q-19.37,19-50.13,19H178.8V2.06h42.34q38.55,0,58.82,21.77Q297.87,43,297.88,74.13T278.69,124.61Zm-26.42-22.14q10.86-10.14,10.86-28.34,0-18.58-10.32-29.09Q242.13,33.6,222.59,33.59H212.46v79.76h9.23Q240.68,113.35,252.27,102.47Z"/><path class="cls-1" d="M383.65,0q30.59,0,51.85,20.64T456.76,73q0,32.1-21.08,52.36t-52,20.27q-30.94,0-52-20.27T310.54,73q0-31.71,21.17-52.36T383.65,0ZM411,44.29q-10.86-11.82-27.33-11.82T356.33,44.29Q345.47,56.11,345.47,73q0,17.09,10.95,28.62t27.23,11.54a36.08,36.08,0,0,0,27.15-11.54q11-11.53,11-28.62Q421.84,56.11,411,44.29Z"/><path class="cls-1" d="M574.21,124.61q-19.37,19-50.13,19H474.32V2.06h42.34q38.55,0,58.82,21.77Q593.39,43,593.4,74.13T574.21,124.61Zm-26.42-22.14q10.86-10.14,10.86-28.34,0-18.58-10.32-29.09Q537.65,33.6,518.11,33.59H508v79.76h9.23Q536.21,113.35,547.79,102.47Z"/><path class="cls-1" d="M673,143.56,643.7,90.64h-2.89v52.92H607.15V2.06h48q19.54,0,31.49,7.51,7.6,4.89,12.67,15a45,45,0,0,1,5.07,20.27q0,21.39-10.86,30.4-6.88,6-19,7.89l38.91,60.42ZM648.23,66.25q11.94,0,17.19-4.7a17.85,17.85,0,0,0,4.89-12.94q0-10.14-6-14.83-5.61-3.95-16.1-3.94h-7.42V66.25Z"/><path class="cls-1" d="M790.47,0q30.59,0,51.85,20.64T863.58,73q0,32.1-21.08,52.36t-52,20.27q-30.94,0-52-20.27T717.36,73q0-31.71,21.17-52.36T790.47,0ZM817.8,44.29q-10.86-11.82-27.33-11.82T763.14,44.29Q752.3,56.11,752.29,73q0,17.09,10.94,28.62a37.81,37.81,0,0,0,54.39,0q11-11.53,11-28.62Q828.66,56.11,817.8,44.29Z"/><path class="cls-1" d="M938,94.4H914.61v49.16H881V2.06h50.68q23.7,0,36.55,12.77,12.68,12.57,12.67,34.34,0,20.64-11.94,33Q957.14,94.4,938,94.4ZM914.61,66.62h9.6q11.56,0,17.55-4.88,5.43-4.68,5.43-13.7T941.4,34.16q-6-4.32-16.83-4.32h-10Z"/><path class="cls-1" d="M790.79,45.19c-21.77,0-32.69,26.31-17.31,41.73l16.29,16.33a1.45,1.45,0,0,0,2,0l16.3-16.33a24,24,0,0,0,7.19-17.1A24.44,24.44,0,0,0,790.79,45.19Zm0,35.78a11.39,11.39,0,1,1,11.39-11.39A11.39,11.39,0,0,1,790.79,81Z"/><path class="cls-2" d="M810.23,115.46l-.89-1.36c4.36-2.86,18.91-13.75,23-33.63,4.76-23.39-8.51-41-11.22-44.31l1.26-1c2.79,3.39,16.46,21.56,11.55,45.67C829.71,101.29,814.73,112.51,810.23,115.46Z"/><path class="cls-2" d="M832,34.65l-1.18-1.81,1.35-.9q.61.91,1.2,1.83Z"/><path class="cls-2" d="M822.79,119.24l-1.1-1.19c1-1,2.08-2,3.06-3l1.15,1.14C824.9,117.24,823.86,118.25,822.79,119.24Zm6.09-6.12-1.21-1.1c1-1.06,1.91-2.14,2.79-3.2l1.25,1C830.81,110.94,829.86,112,828.88,113.12Zm5.49-6.67-1.3-1c.84-1.14,1.66-2.31,2.41-3.47l1.36.89C836.07,104.08,835.24,105.28,834.37,106.45Zm4.72-7.26-1.41-.8c.69-1.23,1.34-2.49,1.94-3.75l1.47.7C840.48,96.63,839.81,97.92,839.09,99.19Zm3.71-7.84-1.52-.58c.51-1.32,1-2.66,1.36-4l1.55.46C843.79,88.61,843.32,90,842.8,91.35ZM845.25,83l-1.59-.33c.28-1.37.51-2.77.68-4.15l1.61.19C845.78,80.16,845.55,81.61,845.25,83Zm1-8.62-1.63-.06c0-.6,0-1.2,0-1.8,0-.8,0-1.61-.06-2.41l1.62-.08q.06,1.24.06,2.49Q846.32,73.47,846.29,74.4Zm-2-8.48c-.18-1.37-.41-2.77-.69-4.16l1.6-.32c.28,1.43.52,2.87.7,4.28Zm-1.67-8.27c-.36-1.33-.78-2.69-1.25-4l1.54-.53c.48,1.39.91,2.78,1.28,4.14Zm-2.74-8c-.52-1.28-1.1-2.59-1.71-3.88l1.47-.7c.63,1.32,1.21,2.66,1.75,4ZM836.26,42c-.65-1.23-1.34-2.47-2.07-3.71l1.4-.82c.74,1.25,1.45,2.52,2.11,3.76Z"/><path class="cls-2" d="M817.89,123.54l-1-1.25c.56-.46,1.11-.93,1.65-1.39l1.06,1.23C819,122.6,818.46,123.07,817.89,123.54Z"/><path class="cls-2" d="M822.77,134.39l-1-1.27C860.5,101.68,867,65.93,841.09,26.88l1.35-.9c13.33,20.08,18.35,39.46,14.91,57.61C854,101.42,842.34,118.51,822.77,134.39Z"/><path class="cls-2" d="M791.57,125.93a.61.61,0,0,0,.57.47l2.78.09A1.22,1.22,0,0,0,796,126l2.41-3.57a.36.36,0,0,1,.61,0,.35.35,0,0,1,0,.38l-.64,1.09a.08.08,0,0,0,0,.12l2.06,1.33a.08.08,0,0,0,.13-.09l-.69-3.46a1.58,1.58,0,0,0-2.86-.56l-2.22,3.41-2.52.1a.8.8,0,0,0-.75,1Z"/><path class="cls-2" d="M804,131.38h-8a.18.18,0,0,0-.18.2l0,.33a.51.51,0,0,0,.46.43c.87,0,2.82.39,2.71,2.29-.14,2.43-2.84,2-2.84,2l-1.42-5.83a.21.21,0,0,1,.2-.27l5.28-.39a1.51,1.51,0,0,0,1.14-1,1.84,1.84,0,0,0-.55-2L798,124.72a.12.12,0,0,0-.19,0,5,5,0,0,0-.86,1.38c-.13.54.54,1.76.54,1.76-1.55.33-3.15.6-4.29,1a1.23,1.23,0,0,0-.81,1.5l1.39,5.12a.13.13,0,0,1-.16.16,1.34,1.34,0,0,0-1.45.64.13.13,0,0,1-.2,0,16,16,0,0,1-2.32-4.61c-.12-1.11,1.1-4.24,1.32-4.78a.12.12,0,0,0,0-.14,1.55,1.55,0,0,1-.38-1.87.11.11,0,0,0-.06-.15l-2.44-1.16h-.18a.11.11,0,0,0-.11.11v.23h-.24a.09.09,0,0,0-.09.08v2.54a.09.09,0,0,0,.09.08h.13v.11a.23.23,0,0,0,.23.23H788l.1,0,1.61-.75a.14.14,0,0,1,.19.19l-3.1,6.32a.15.15,0,0,0,.12.22,4.56,4.56,0,0,1,3.56,3.23,2.75,2.75,0,0,0,1.9,1.89l8.21-.13a.17.17,0,0,0,.17-.16.17.17,0,0,0-.09-.15,1.07,1.07,0,0,1-.59-.91,3.54,3.54,0,0,1,3.38-4.19c1.49-.13,1.89.54,1.89.54l.07.11a.39.39,0,0,1-.47.57,2.41,2.41,0,0,0-1.49-.27,3.38,3.38,0,0,0-2.61,2.74.4.4,0,0,0,.4.5h8A5.27,5.27,0,0,0,804,131.38Z"/><circle class="cls-2" cx="786.27" cy="138.14" r="0.95"/><path class="cls-2" d="M785.6,133.54c-3.11.54-3.38,2.44-3.38,2.44h1.28a3.51,3.51,0,1,0,6.29,2.16c0-.09,0-.18,0-.27h.41C790.46,136.52,788.71,133,785.6,133.54Zm.67,6.49a1.89,1.89,0,1,1,0-3.78,1.84,1.84,0,0,1,.41,0,1.91,1.91,0,0,1,1.24.92,1.85,1.85,0,0,1,.25.93A1.9,1.9,0,0,1,786.27,140Z"/><path class="cls-2" d="M804.74,139a1,1,0,0,0,.59-1.21.94.94,0,0,0-.19-.32h-1.41a.95.95,0,0,0,1,1.53Z"/><path class="cls-2" d="M806.22,137.46h0a1.89,1.89,0,1,1-3.57,1.24,1.85,1.85,0,0,1,0-1.25H801a3.51,3.51,0,1,0,6.91,0Z"/><path class="cls-2" d="M802.37,129a.18.18,0,0,0-.18.14,2,2,0,0,1-.09.33,2.49,2.49,0,0,1-.58.92.06.06,0,0,0,0,.11,21.83,21.83,0,0,1,3.25.18,3.19,3.19,0,0,1,.92.39.18.18,0,0,0,.27-.1.11.11,0,0,0,0,0v-.69a1.23,1.23,0,0,0-1.23-1.23Z"/><rect class="cls-2" x="801.07" y="119.05" width="6.44" height="8.72" rx="1.14" transform="matrix(0.98, -0.22, 0.22, 0.98, -7.64, 177.14)"/><path class="cls-2" d="M809.19,133.51v-2.2h-2.3A6.15,6.15,0,0,1,809.19,133.51Z"/><path class="cls-2" d="M796,118.6a.32.32,0,0,0-.3-.2l-1.72,0a2.73,2.73,0,0,0,.78,1.69L796,119A.32.32,0,0,0,796,118.6Z"/><path class="cls-2" d="M792.67,117.61h2l1.08,0h0a1.13,1.13,0,0,1,.79,1.93l-1,1a1.79,1.79,0,0,0,.53.07,2.92,2.92,0,0,0,2.8-2.6,2.45,2.45,0,0,0-3.24-2.3h0a2.42,2.42,0,0,0-.9.57h0a2.69,2.69,0,0,0-.33.41,1.43,1.43,0,0,1-.71.41l-1,.08a.21.21,0,0,0,0,.42Z"/></g></g></svg>